# This file uses centimeters as units for non-parametric coordinates.

mtllib flipped_side_cube.mtl
g default
v -99.742723 0.257277 99.742723
v 99.742723 0.257277 99.742723
v -99.742723 199.742723 99.742723
v 99.742723 199.742723 99.742723
v -99.742723 199.742723 -99.742723
v 99.742723 199.742723 -99.742723
v -99.742723 0.257277 -99.742723
v 99.742723 0.257277 -99.742723
vt 0.375000 0.000000
vt 0.375000 0.250000
vt 0.625000 0.250000
vt 0.375000 0.500000
vt 0.625000 0.500000
vt 0.375000 0.750000
vt 0.625000 0.750000
vt 0.375000 1.000000
vt 0.625000 1.000000
vt 0.125000 0.000000
vt 0.125000 0.250000
vn 0.000000 1.000000 0.000000
vn 0.000000 1.000000 0.000000
vn 0.000000 1.000000 0.000000
vn 0.000000 1.000000 0.000000
vn 0.000000 -1.000000 0.000000
vn 0.000000 -1.000000 0.000000
vn 0.000000 -1.000000 0.000000
vn 0.000000 -1.000000 0.000000
vn -1.000000 0.000000 0.000000
vn -1.000000 0.000000 0.000000
vn -1.000000 0.000000 0.000000
vn -1.000000 0.000000 0.000000
s off
g pCube1
usemtl initialShadingGroup
f 3/2/1 4/3/2 6/5/3 5/4/4
f 7/6/5 8/7/6 2/9/7 1/8/8
f 7/10/9 1/1/10 3/2/11 5/11/12
