# This file uses centimeters as units for non-parametric coordinates.

mtllib corner with side.mtl
g default
v 99.742723 0.257277 99.742723
v -99.742723 199.742723 99.742723
v 99.742723 199.742723 99.742723
v -99.742723 199.742723 -99.742723
v 99.742723 199.742723 -99.742723
v 99.742723 0.257277 -99.742723
vt 0.625000 0.000000
vt 0.375000 0.250000
vt 0.625000 0.250000
vt 0.375000 0.500000
vt 0.625000 0.500000
vt 0.875000 0.000000
vt 0.875000 0.250000
vn 0.000000 1.000000 0.000000
vn 0.000000 1.000000 0.000000
vn 0.000000 1.000000 0.000000
vn 0.000000 1.000000 0.000000
vn 1.000000 0.000000 0.000000
vn 1.000000 0.000000 0.000000
vn 1.000000 0.000000 0.000000
vn 1.000000 0.000000 0.000000
s off
g pCube1
usemtl initialShadingGroup
f 2/2/1 3/3/2 5/5/3 4/4/4
f 1/1/5 6/6/6 5/7/7 3/3/8
